{
  "asset": {
    "generator": "glTF-Transform v4.2.0",
    "version": "2.0"
  },
  "accessors": [
    {
      "type": "VEC3",
      "componentType": 5126,
      "count": 240,
      "max": [
        0.3824999928474426,
        0.08500000089406967,
        0.3824999928474426
      ],
      "min": [
        -0.3824999928474426,
        0,
        -0.3824999928474426
      ],
      "bufferView": 0,
      "byteOffset": 0
    },
    {
      "type": "VEC3",
      "componentType": 5126,
      "count": 240,
      "bufferView": 0,
      "byteOffset": 12
    },
    {
      "type": "VEC4",
      "componentType": 5126,
      "count": 240,
      "bufferView": 0,
      "byteOffset": 24
    },
    {
      "type": "VEC2",
      "componentType": 5126,
      "count": 240,
      "bufferView": 0,
      "byteOffset": 40
    },
    {
      "type": "SCALAR",
      "componentType": 5121,
      "count": 576,
      "bufferView": 1,
      "byteOffset": 0
    },
    {
      "type": "SCALAR",
      "componentType": 5121,
      "count": 270,
      "bufferView": 1,
      "byteOffset": 576
    },
    {
      "type": "VEC3",
      "componentType": 5126,
      "count": 180,
      "max": [
        0.2677963674068451,
        0.2549999952316284,
        0.2677963674068451
      ],
      "min": [
        -0.2677963674068451,
        0.08500000089406967,
        -0.2677963674068451
      ],
      "bufferView": 2,
      "byteOffset": 0
    },
    {
      "type": "VEC3",
      "componentType": 5126,
      "count": 180,
      "bufferView": 2,
      "byteOffset": 12
    },
    {
      "type": "VEC4",
      "componentType": 5126,
      "count": 180,
      "bufferView": 2,
      "byteOffset": 24
    },
    {
      "type": "VEC2",
      "componentType": 5126,
      "count": 180,
      "bufferView": 2,
      "byteOffset": 40
    },
    {
      "type": "SCALAR",
      "componentType": 5126,
      "count": 6,
      "max": [
        0.20000000298023224
      ],
      "min": [
        0
      ],
      "bufferView": 3,
      "byteOffset": 0
    },
    {
      "type": "VEC3",
      "componentType": 5126,
      "count": 6,
      "bufferView": 3,
      "byteOffset": 24
    },
    {
      "type": "SCALAR",
      "componentType": 5126,
      "count": 6,
      "max": [
        0.20000000298023224
      ],
      "min": [
        0
      ],
      "bufferView": 3,
      "byteOffset": 96
    },
    {
      "type": "VEC3",
      "componentType": 5126,
      "count": 6,
      "bufferView": 3,
      "byteOffset": 120
    },
    {
      "type": "SCALAR",
      "componentType": 5126,
      "count": 36,
      "max": [
        1.2000000476837158
      ],
      "min": [
        0
      ],
      "bufferView": 3,
      "byteOffset": 192
    },
    {
      "type": "VEC3",
      "componentType": 5126,
      "count": 36,
      "bufferView": 3,
      "byteOffset": 336
    }
  ],
  "bufferViews": [
    {
      "buffer": 0,
      "byteOffset": 0,
      "byteLength": 11520,
      "byteStride": 48,
      "target": 34962
    },
    {
      "buffer": 0,
      "byteOffset": 11520,
      "byteLength": 848,
      "target": 34963
    },
    {
      "buffer": 0,
      "byteOffset": 12368,
      "byteLength": 8640,
      "byteStride": 48,
      "target": 34962
    },
    {
      "buffer": 0,
      "byteOffset": 21008,
      "byteLength": 768
    }
  ],
  "samplers": [
    {
      "magFilter": 9728,
      "minFilter": 9984,
      "wrapS": 10497,
      "wrapT": 10497
    }
  ],
  "textures": [
    {
      "source": 0,
      "sampler": 0
    }
  ],
  "images": [
    {
      "name": "colormap",
      "mimeType": "image/png",
      "uri": "Textures/colormap.png"
    }
  ],
  "buffers": [
    {
      "uri": "trap-spikes-large.bin",
      "byteLength": 21776
    }
  ],
  "materials": [
    {
      "name": "colormap",
      "doubleSided": true,
      "pbrMetallicRoughness": {
        "metallicFactor": 0,
        "baseColorTexture": {
          "index": 0,
          "extensions": {
            "KHR_texture_transform": {
              "texCoord": 0
            }
          }
        }
      }
    }
  ],
  "meshes": [
    {
      "name": "trap-spikes-large",
      "primitives": [
        {
          "attributes": {
            "POSITION": 0,
            "NORMAL": 1,
            "TANGENT": 2,
            "TEXCOORD_0": 3
          },
          "mode": 4,
          "material": 0,
          "indices": 4
        }
      ]
    },
    {
      "name": "spikes",
      "primitives": [
        {
          "attributes": {
            "POSITION": 6,
            "NORMAL": 7,
            "TANGENT": 8,
            "TEXCOORD_0": 9
          },
          "mode": 4,
          "material": 0,
          "indices": 5
        }
      ]
    }
  ],
  "nodes": [
    {
      "name": "trap-spikes-large",
      "mesh": 0,
      "children": [
        1
      ]
    },
    {
      "name": "spikes",
      "mesh": 1
    }
  ],
  "animations": [
    {
      "name": "show",
      "samplers": [
        {
          "input": 10,
          "output": 11,
          "interpolation": "LINEAR"
        }
      ],
      "channels": [
        {
          "sampler": 0,
          "target": {
            "node": 1,
            "path": "translation"
          }
        }
      ]
    },
    {
      "name": "hide",
      "samplers": [
        {
          "input": 12,
          "output": 13,
          "interpolation": "LINEAR"
        }
      ],
      "channels": [
        {
          "sampler": 0,
          "target": {
            "node": 1,
            "path": "translation"
          }
        }
      ]
    },
    {
      "name": "show-hide",
      "samplers": [
        {
          "input": 14,
          "output": 15,
          "interpolation": "LINEAR"
        }
      ],
      "channels": [
        {
          "sampler": 0,
          "target": {
            "node": 1,
            "path": "translation"
          }
        }
      ]
    }
  ],
  "scenes": [
    {
      "name": "trap-spikes-large",
      "nodes": [
        0
      ]
    }
  ],
  "scene": 0,
  "extensionsUsed": [
    "KHR_texture_transform"
  ]
}